<?xml version="1.0" encoding="UTF-8" standalone="no"?>
<!-- Created with Inkscape (http://www.inkscape.org/) -->

<svg
   xmlns:dc="http://purl.org/dc/elements/1.1/"
   xmlns:cc="http://creativecommons.org/ns#"
   xmlns:rdf="http://www.w3.org/1999/02/22-rdf-syntax-ns#"
   xmlns:svg="http://www.w3.org/2000/svg"
   xmlns="http://www.w3.org/2000/svg"
   xmlns:sodipodi="http://sodipodi.sourceforge.net/DTD/sodipodi-0.dtd"
   xmlns:inkscape="http://www.inkscape.org/namespaces/inkscape"
   width="210mm"
   height="297mm"
   viewBox="0 0 210 297"
   version="1.1"
   id="svg8"
   inkscape:version="0.92.3 (2405546, 2018-03-11)"
   sodipodi:docname="UNDERGROUND.svg">
  <defs
     id="defs2" />
  <sodipodi:namedview
     id="base"
     pagecolor="#ffffff"
     bordercolor="#666666"
     borderopacity="1.0"
     inkscape:pageopacity="0.0"
     inkscape:pageshadow="2"
     inkscape:zoom="0.95169365"
     inkscape:cx="290.25137"
     inkscape:cy="651.92047"
     inkscape:document-units="mm"
     inkscape:current-layer="layer1"
     showgrid="false"
     inkscape:window-width="1920"
     inkscape:window-height="1025"
     inkscape:window-x="0"
     inkscape:window-y="27"
     inkscape:window-maximized="1" />
  <metadata
     id="metadata5">
    <rdf:RDF>
      <cc:Work
         rdf:about="">
        <dc:format>image/svg+xml</dc:format>
        <dc:type
           rdf:resource="http://purl.org/dc/dcmitype/StillImage" />
        <dc:title></dc:title>
      </cc:Work>
    </rdf:RDF>
  </metadata>
  <g
     inkscape:label="Capa 1"
     inkscape:groupmode="layer"
     id="layer1">
    <path
       style="fill:#7654bf;fill-opacity:1;stroke:#ffffff;stroke-width:0.26458335;stroke-miterlimit:4;stroke-dasharray:3.17500034, 3.17500034;stroke-dashoffset:0;stroke-opacity:1"
       id="path828"
       sodipodi:type="arc"
       sodipodi:cx="95.627968"
       sodipodi:cy="117.08333"
       sodipodi:rx="41.955357"
       sodipodi:ry="6.8035712"
       sodipodi:start="0"
       sodipodi:end="2.4744755e-05"
       d="m 137.58332,117.08333 a 41.955357,6.8035712 0 0 1 0,1.7e-4 l -41.955352,-1.7e-4 z" />
    <path
       style="fill:#ff0000;fill-rule:evenodd;stroke-width:0.26458332"
       id="path840"
       sodipodi:type="arc"
       sodipodi:cx="105"
       sodipodi:cy="148.5"
       sodipodi:rx="83.784721"
       sodipodi:ry="86.934525"
       sodipodi:start="0"
       sodipodi:end="6.2809513"
       d="m 188.78472,148.5 a 83.784721,86.934525 0 0 1 -83.73793,86.93451 83.784721,86.934525 0 0 1 -83.831459,-86.8374 83.784721,86.934525 0 0 1 83.644289,-87.031513 83.784721,86.934525 0 0 1 83.92489,86.740193 L 105,148.5 Z" />
    <path
       style="fill:#ff0000;fill-rule:evenodd;stroke-width:0.26458332"
       id="path842"
       sodipodi:type="arc"
       sodipodi:cx="96.383926"
       sodipodi:cy="139.08994"
       sodipodi:rx="3.0448091"
       sodipodi:ry="3.1498075"
       sodipodi:start="0"
       sodipodi:end="6.2809513"
       d="m 99.428735,139.08994 a 3.0448091,3.1498075 0 0 1 -3.043108,3.1498 3.0448091,3.1498075 0 0 1 -3.046508,-3.14629 3.0448091,3.1498075 0 0 1 3.039706,-3.15332 3.0448091,3.1498075 0 0 1 3.049903,3.14277 l -3.044802,0.007 z" />
    <path
       style="fill:#fffffe;fill-opacity:1;fill-rule:evenodd;stroke-width:0.24602854"
       id="path844"
       sodipodi:type="arc"
       sodipodi:cx="105"
       sodipodi:cy="148.5"
       sodipodi:rx="60.377651"
       sodipodi:ry="63.293518"
       sodipodi:start="0"
       sodipodi:end="6.2809513"
       d="M 165.37765,148.5 A 60.377651,63.293518 0 0 1 105.03372,211.79351 60.377651,63.293518 0 0 1 44.622386,148.5707 60.377651,63.293518 0 0 1 104.89884,85.206571 60.377651,63.293518 0 0 1 165.3775,148.3586 L 105,148.5 Z" />
    <rect
       style="fill:#003499;fill-opacity:1;stroke:#ffffff;stroke-width:0.25160915;stroke-miterlimit:4;stroke-dasharray:3.01930995, 3.01930995;stroke-dashoffset:0;stroke-opacity:1"
       id="rect849"
       width="190.5331"
       height="37.000198"
       x="9.7334518"
       y="129.99991"
       rx="0"
       ry="0" />
    <text
       xml:space="preserve"
       style="font-style:normal;font-variant:normal;font-weight:bold;font-stretch:normal;font-size:25.46697426px;line-height:1.25;font-family:ARIAL;-inkscape-font-specification:'ARIAL Bold';letter-spacing:0px;word-spacing:0px;fill:#ffffff;fill-opacity:1;stroke-width:0.6366744"
       x="14.528919"
       y="142.41245"
       id="text861"
       transform="scale(0.89997134,1.1111465)"><tspan
         sodipodi:role="line"
         id="tspan859"
         x="14.528919"
         y="142.41245"
         style="font-style:normal;font-variant:normal;font-weight:bold;font-stretch:normal;font-family:ARIAL;-inkscape-font-specification:'ARIAL Bold';fill:#ffffff;fill-opacity:1;stroke-width:0.6366744">UNDERGROUND</tspan></text>
  </g>
</svg>
